<mxfile host="app.diagrams.net" modified="2020-06-23T20:11:15.496Z" agent="5.0 (Macintosh; Intel Mac OS X 10_14_6) AppleWebKit/537.36 (KHTML, like Gecko) Chrome/83.0.4103.106 Safari/537.36" etag="QIGE1u3p_6PjAXHZV8bC" version="13.3.0" type="github">
  <diagram id="En8DPw2VWvYYrCO0BwaC" name="Page-1">
    <mxGraphModel dx="946" dy="614" grid="1" gridSize="10" guides="1" tooltips="1" connect="1" arrows="1" fold="1" page="1" pageScale="1" pageWidth="850" pageHeight="1100" math="0" shadow="0">
      <root>
        <mxCell id="0" />
        <mxCell id="1" parent="0" />
        <UserObject label="" lucidchartObjectId="ZyE4c_P3Ufc7" id="kpLQ-KXEZiZvVzIevv52-104">
          <mxCell style="html=1;whiteSpace=wrap;shape=mxgraph.aws4.users;labelPosition=center;verticalLabelPosition=bottom;align=center;verticalAlign=top;strokeColor=none;fontSize=11;spacing=0;strokeOpacity=100;fillOpacity=100;fillColor=#666666;" vertex="1" parent="1">
            <mxGeometry x="310" y="104" width="40" height="40" as="geometry" />
          </mxCell>
        </UserObject>
        <UserObject label="" lucidchartObjectId="ZyE4HLhWYkgI" id="kpLQ-KXEZiZvVzIevv52-105">
          <mxCell style="html=1;jettySize=18;fontSize=11;strokeColor=#666666;strokeOpacity=100;rounded=1;arcSize=24;edgeStyle=orthogonalEdgeStyle;startArrow=none;;endArrow=none;;exitX=1.000000001773236;exitY=0.5000000000000002;exitPerimeter=1;entryX=0.5000000000000007;entryY=1.0784361873732772e-16;entryPerimeter=1;" edge="1" parent="1" source="kpLQ-KXEZiZvVzIevv52-104">
            <mxGeometry width="100" height="100" relative="1" as="geometry">
              <Array as="points">
                <mxPoint x="421.5" y="124" />
              </Array>
              <mxPoint x="421" y="150" as="targetPoint" />
            </mxGeometry>
          </mxCell>
        </UserObject>
        <UserObject label="" lucidchartObjectId="ZyE41c8WnD6." id="kpLQ-KXEZiZvVzIevv52-106">
          <mxCell style="html=1;whiteSpace=wrap;shape=mxgraph.aws4.users;labelPosition=center;verticalLabelPosition=bottom;align=center;verticalAlign=top;strokeColor=none;fontSize=11;spacing=0;strokeOpacity=100;fillOpacity=100;fillColor=#666666;" vertex="1" parent="1">
            <mxGeometry x="493" y="104" width="40" height="40" as="geometry" />
          </mxCell>
        </UserObject>
        <UserObject label="" lucidchartObjectId="ZyE43OfRoB9h" id="kpLQ-KXEZiZvVzIevv52-107">
          <mxCell style="html=1;jettySize=18;fontSize=11;strokeColor=#666666;strokeOpacity=100;rounded=1;arcSize=24;edgeStyle=orthogonalEdgeStyle;startArrow=none;;endArrow=none;;exitX=0;exitY=0.5000000000000002;exitPerimeter=1;entryX=0.5000000000000007;entryY=1.0784361873732772e-16;entryPerimeter=1;" edge="1" parent="1" source="kpLQ-KXEZiZvVzIevv52-106">
            <mxGeometry width="100" height="100" relative="1" as="geometry">
              <Array as="points">
                <mxPoint x="421.5" y="124" />
              </Array>
              <mxPoint x="421" y="150" as="targetPoint" />
            </mxGeometry>
          </mxCell>
        </UserObject>
        <mxCell id="kpLQ-KXEZiZvVzIevv52-108" value="Clients" style="text;html=1;align=center;verticalAlign=middle;resizable=0;points=[];autosize=1;" vertex="1" parent="1">
          <mxGeometry x="490" y="80" width="50" height="20" as="geometry" />
        </mxCell>
        <mxCell id="kpLQ-KXEZiZvVzIevv52-109" value="Users" style="text;html=1;align=center;verticalAlign=middle;resizable=0;points=[];autosize=1;" vertex="1" parent="1">
          <mxGeometry x="310" y="80" width="50" height="20" as="geometry" />
        </mxCell>
        <mxCell id="kpLQ-KXEZiZvVzIevv52-128" style="edgeStyle=orthogonalEdgeStyle;rounded=0;orthogonalLoop=1;jettySize=auto;html=1;" edge="1" parent="1" source="kpLQ-KXEZiZvVzIevv52-126" target="kpLQ-KXEZiZvVzIevv52-122">
          <mxGeometry relative="1" as="geometry" />
        </mxCell>
        <UserObject label="&lt;font style=&quot;font-size: 9px&quot;&gt;Route 53&lt;/font&gt;" lucidchartObjectId="ZyE4sDo.5fip" id="kpLQ-KXEZiZvVzIevv52-126">
          <mxCell style="html=1;whiteSpace=wrap;shape=mxgraph.aws4.resourceIcon;resIcon=mxgraph.aws4.route_53;labelPosition=center;verticalLabelPosition=bottom;align=center;verticalAlign=top;strokeColor=#ffffff;fontSize=11;spacing=0;strokeOpacity=100;fillColor=#693cc5;" vertex="1" parent="1">
            <mxGeometry x="400" y="150" width="40" height="40" as="geometry" />
          </mxCell>
        </UserObject>
        <mxCell id="kpLQ-KXEZiZvVzIevv52-113" value="x" style="html=1;whiteSpace=wrap;fontSize=9;fontColor=#666666;fontStyle=1;spacing=0;strokeOpacity=100;fillOpacity=0;fillColor=#000000;" vertex="1" parent="1">
          <mxGeometry x="30" y="170" width="791" height="584" as="geometry" />
        </mxCell>
        <UserObject label="AWS Cloud" lucidchartObjectId="ZyE4pIuA_5Mh" id="kpLQ-KXEZiZvVzIevv52-114">
          <mxCell style="html=1;whiteSpace=wrap;shape=mxgraph.aws4.group;grIcon=mxgraph.aws4.group_aws_cloud_alt;verticalAlign=top;align=left;spacingLeft=30;fillOpacity=100;fillColor=none;fontSize=9;fontColor=#666666;fontStyle=1;spacing=0;strokeOpacity=100;part=1;" vertex="1" parent="kpLQ-KXEZiZvVzIevv52-113">
            <mxGeometry width="791" height="584" as="geometry" />
          </mxCell>
        </UserObject>
        <mxCell id="kpLQ-KXEZiZvVzIevv52-121" value="" style="group;dropTarget=0;" vertex="1" parent="kpLQ-KXEZiZvVzIevv52-113">
          <mxGeometry x="360.5" y="90" width="59" height="54" as="geometry" />
        </mxCell>
        <UserObject label="&lt;font style=&quot;font-size: 10px&quot;&gt;CloudFront&lt;/font&gt;" lucidchartObjectId="ZyE4HXlMvsA3" id="kpLQ-KXEZiZvVzIevv52-122">
          <mxCell style="html=1;whiteSpace=wrap;shape=mxgraph.aws4.resourceIcon;resIcon=mxgraph.aws4.networking_and_content_delivery;labelPosition=center;verticalLabelPosition=bottom;align=center;verticalAlign=top;fontSize=11;spacing=0;strokeOpacity=0;fillColor=#693cc5;" vertex="1" parent="kpLQ-KXEZiZvVzIevv52-121">
            <mxGeometry x="11.115942028985508" width="37.6231884057971" height="39.6" as="geometry" />
          </mxCell>
        </UserObject>
        <mxCell id="kpLQ-KXEZiZvVzIevv52-123" style="edgeStyle=orthogonalEdgeStyle;rounded=0;orthogonalLoop=1;jettySize=auto;html=1;exitX=0.5;exitY=0;exitDx=0;exitDy=0;entryX=0.422;entryY=0.556;entryDx=0;entryDy=0;entryPerimeter=0;strokeColor=#000000;" edge="1" parent="kpLQ-KXEZiZvVzIevv52-121" target="kpLQ-KXEZiZvVzIevv52-122">
          <mxGeometry relative="1" as="geometry">
            <mxPoint x="29.5" y="39.60000000000002" as="sourcePoint" />
          </mxGeometry>
        </mxCell>
        <mxCell id="kpLQ-KXEZiZvVzIevv52-145" style="edgeStyle=orthogonalEdgeStyle;rounded=0;orthogonalLoop=1;jettySize=auto;html=1;" edge="1" parent="kpLQ-KXEZiZvVzIevv52-113" source="kpLQ-KXEZiZvVzIevv52-129" target="kpLQ-KXEZiZvVzIevv52-144">
          <mxGeometry relative="1" as="geometry" />
        </mxCell>
        <mxCell id="kpLQ-KXEZiZvVzIevv52-129" value="&lt;font style=&quot;font-size: 10px&quot;&gt;API Gateway&lt;/font&gt;" style="outlineConnect=0;fontColor=#232F3E;gradientColor=#945DF2;gradientDirection=north;fillColor=#5A30B5;strokeColor=#ffffff;dashed=0;verticalLabelPosition=bottom;verticalAlign=top;align=center;html=1;fontSize=12;fontStyle=0;shape=mxgraph.aws4.resourceIcon;resIcon=mxgraph.aws4.api_gateway;" vertex="1" parent="kpLQ-KXEZiZvVzIevv52-113">
          <mxGeometry x="370.43" y="210" width="40" height="40" as="geometry" />
        </mxCell>
        <mxCell id="kpLQ-KXEZiZvVzIevv52-134" style="edgeStyle=orthogonalEdgeStyle;rounded=0;orthogonalLoop=1;jettySize=auto;html=1;" edge="1" parent="kpLQ-KXEZiZvVzIevv52-113" source="kpLQ-KXEZiZvVzIevv52-122" target="kpLQ-KXEZiZvVzIevv52-129">
          <mxGeometry relative="1" as="geometry" />
        </mxCell>
        <mxCell id="kpLQ-KXEZiZvVzIevv52-144" value="" style="outlineConnect=0;fontColor=#232F3E;gradientColor=#F78E04;gradientDirection=north;fillColor=#D05C17;strokeColor=#ffffff;dashed=0;verticalLabelPosition=bottom;verticalAlign=top;align=center;html=1;fontSize=12;fontStyle=0;aspect=fixed;shape=mxgraph.aws4.resourceIcon;resIcon=mxgraph.aws4.lambda;" vertex="1" parent="kpLQ-KXEZiZvVzIevv52-113">
          <mxGeometry x="370" y="330" width="40" height="40" as="geometry" />
        </mxCell>
      </root>
    </mxGraphModel>
  </diagram>
</mxfile>
